<svg xmlns="http://www.w3.org/2000/svg" xmlns:xlink="http://www.w3.org/1999/xlink" viewBox="0 0 21 21"><defs><path id="a" d="M0 21V0h21v21z"/></defs><g fill="none" fill-rule="evenodd"><mask id="b" fill="#fff"><use xlink:href="#a"/></mask><path fill="#FFF" d="M8.71 3.067a5.61 5.61 0 0 1 5.626 5.635 5.61 5.61 0 0 1-5.626 5.635 5.612 5.612 0 0 1-5.634-5.635A5.612 5.612 0 0 1 8.71 3.067M8.71 0C3.92 0 0 3.91 0 8.702c0 4.791 3.92 8.712 8.71 8.712 1.842 0 3.548-.59 4.954-1.57l4.71 4.7a1.528 1.528 0 0 0 2.177 0 1.533 1.533 0 0 0 0-2.169l-4.71-4.71a8.628 8.628 0 0 0 1.57-4.963c0-4.791-3.92-8.702-8.7-8.702" mask="url(#b)"/></g></svg>